# xmcd
#
# Track frame offsets:
#	150
#	13629
#	27877
#	41531
#	56632
#	73657
#	86881
#	102574
#	113065
#	131773
#	145898
#	163809
#	179533
#
# Disc length: 2652 seconds
#
# Revision: 0
# Processed by: cddbd v1.4PL0 Copyright (c) Steve Scherf et al.
# Submitted via: dBpowerAMP V4.0
#
DISCID=bb0a5a0d
DTITLE=Keb' Mo' - Keb' Mo'
DYEAR=1900
DGENRE=Blues
TTITLE0=Every Morning
TTITLE1=Tell Everybody I Know
TTITLE2=Love Blues
TTITLE3=Victims of Comfort
TTITLE4=Angelina
TTITLE5=Anybody Seen My Girl
TTITLE6=She Just Wants to Dance
TTITLE7=Am I Wrong
TTITLE8=Come on in My Kitchen
TTITLE9=Dirty, Low Down and Bad
TTITLE10=Don't Try to Explain
TTITLE11=Kindhearted Woman Blues
TTITLE12=City Boy
EXTD=
EXTT0=
EXTT1=
EXTT2=
EXTT3=
EXTT4=
EXTT5=
EXTT6=
EXTT7=
EXTT8=
EXTT9=
EXTT10=
EXTT11=
EXTT12=
PLAYORDER=
